<svg xmlns="http://www.w3.org/2000/svg" xmlns:xlink="http://www.w3.org/1999/xlink" xmlns:a="http://ns.adobe.com/AdobeSVGViewerExtensions/3.0/" version="1.1" x="0px" y="0px" width="100px" height="100px" viewBox="0 0 100 100" enable-background="new 0 0 100 100" xml:space="preserve">
<defs>
</defs>
<path fill="#ffffff" d="M30.511,92.747c0,1.338-1.16,2.426-2.59,2.426H17.569c-1.431,0-2.591-1.086-2.591-2.426v-27.88  c0-1.338,1.16-2.424,2.591-2.424h10.352c1.431,0,2.59,1.086,2.59,2.424V92.747z"/>
<path fill="#ffffff" d="M50.819,4.827C50.527,4.823,50.267,4.86,50,4.895c-0.265-0.035-0.527-0.071-0.818-0.067C22.049,5.293,0.467,26.875,0,54.009  c0,6.656,0,13.313,0,19.97c0,6.438,9.985,6.438,9.985,0c0-6.655,0-13.313,0-19.97c0.374-21.667,17.53-38.823,39.197-39.195  c0.291-0.005,0.554-0.053,0.818-0.096c0.267,0.043,0.527,0.091,0.819,0.095c21.666,0.373,38.823,17.528,39.197,39.196  c0,6.654,0,13.312,0,19.97c0,6.438,9.983,6.438,9.983,0c0-6.656,0-13.313,0-19.97C99.531,26.875,77.953,5.293,50.819,4.827z"/>
<path fill="#ffffff" d="M69.492,92.747c0,1.338,1.159,2.426,2.587,2.426h10.355c1.429,0,2.587-1.086,2.587-2.426v-27.88  c0-1.338-1.158-2.424-2.587-2.424H72.079c-1.428,0-2.587,1.086-2.587,2.424V92.747z"/>
</svg>
