<svg xmlns="http://www.w3.org/2000/svg" xmlns:xlink="http://www.w3.org/1999/xlink" version="1.1" id="Layer_1" x="0px" y="0px" width="100px" height="100px" viewBox="0 0 100 100" enable-background="new 0 0 100 100" xml:space="preserve">
<path fill="#ffffff" d="M72.958,5.288H28.324c-12.297,0-22.302,10.005-22.302,22.302v45c0,12.296,10.005,22.302,22.302,22.302h44.634  c12.297,0,22.302-10.006,22.302-22.302v-45C95.26,15.293,85.255,5.288,72.958,5.288z M28.324,13.548h44.634  C80.701,13.548,87,19.847,87,27.59v7.676H63.356c-3.464-2.467-7.692-3.924-12.259-3.924c-4.567,0-8.796,1.457-12.26,3.924H14.281  V27.59C14.281,19.847,20.581,13.548,28.324,13.548z M59.891,52.525c0,4.85-3.944,8.795-8.793,8.795c-4.85,0-8.794-3.945-8.794-8.795  c0-4.848,3.945-8.793,8.794-8.793C55.946,43.732,59.891,47.678,59.891,52.525z M72.958,86.633H28.324  c-7.743,0-14.042-6.301-14.042-14.042V43.526h17.645c-1.288,2.734-2.013,5.783-2.013,8.999c0,11.683,9.503,21.185,21.185,21.185  c11.681,0,21.184-9.502,21.184-21.185c0-3.216-0.725-6.265-2.013-8.999H87v29.064C87,80.332,80.701,86.633,72.958,86.633z"/>
<path fill="#ffffff" d="M80.527,28.693c0,1.363-1.115,2.478-2.478,2.478h-7.657c-1.363,0-2.478-1.115-2.478-2.478v-7.657  c0-1.363,1.114-2.478,2.478-2.478h7.657c1.362,0,2.478,1.115,2.478,2.478V28.693z"/>
</svg>
